<?xml version="1.0" encoding="iso-8859-1"?>
<!-- Generator: Adobe Illustrator 19.1.0, SVG Export Plug-In . SVG Version: 6.00 Build 0)  -->
<svg version="1.1" id="Capa_1" xmlns="http://www.w3.org/2000/svg" xmlns:xlink="http://www.w3.org/1999/xlink" x="0px" y="0px"
	 viewBox="0 0 439.48 439.48" style="enable-background:new 0 0 439.48 439.48;" xml:space="preserve">
<g>
	<path d="M439.48,293.95v120.29c0,12.32-10.03,22.35-22.36,22.35h-68.29c-12.32,0-22.35-10.03-22.35-22.35V293.95
		c0-12.33,10.03-22.36,22.35-22.36h68.29C429.45,271.59,439.48,281.62,439.48,293.95z M424.48,414.24v-1.65h-83v1.65
		c0,4.05,3.3,7.35,7.35,7.35h68.29C421.18,421.59,424.48,418.29,424.48,414.24z M424.48,397.59V293.95c0-4.06-3.3-7.36-7.36-7.36
		h-68.29c-4.05,0-7.35,3.3-7.35,7.36v103.64H424.48z"/>
	<path style="fill:#F48C6C;" d="M424.48,412.59v1.65c0,4.05-3.3,7.35-7.36,7.35h-68.29c-4.05,0-7.35-3.3-7.35-7.35v-1.65H424.48z"/>
	<path d="M390.48,223.28v27.2c0,4.14-3.36,7.5-7.5,7.5c-4.15,0-7.5-3.36-7.5-7.5v-19.7H227.24v19.7c0,4.14-3.36,7.5-7.5,7.5
		c-4.15,0-7.5-3.36-7.5-7.5v-19.7H64v19.7c0,4.14-3.36,7.5-7.5,7.5c-4.15,0-7.5-3.36-7.5-7.5v-27.2c0-4.14,3.35-7.5,7.5-7.5h155.74
		v-34.49c0-4.15,3.35-7.5,7.5-7.5c4.14,0,7.5,3.35,7.5,7.5v34.49h155.74C387.12,215.78,390.48,219.14,390.48,223.28z"/>
	<path d="M315.24,25.21v94.35c0,12.31-10.02,22.33-22.33,22.33h-65.67v9h47.5c4.14,0,7.5,3.36,7.5,7.5s-3.36,7.5-7.5,7.5h-110
		c-4.15,0-7.5-3.36-7.5-7.5s3.35-7.5,7.5-7.5h47.5v-9h-65.68c-12.31,0-22.32-10.02-22.32-22.33V25.21
		c0-12.31,10.01-22.32,22.32-22.32h146.35C305.22,2.89,315.24,12.9,315.24,25.21z M300.24,119.56v-5.2h-161v5.2
		c0,4.04,3.28,7.33,7.32,7.33h146.35C296.95,126.89,300.24,123.6,300.24,119.56z M300.24,99.36V25.21c0-4.04-3.29-7.32-7.33-7.32
		H146.56c-4.04,0-7.32,3.28-7.32,7.32v74.15H300.24z"/>
	<path style="fill:#3DD0F2;" d="M300.24,114.36v5.2c0,4.04-3.29,7.33-7.33,7.33H146.56c-4.04,0-7.32-3.29-7.32-7.33v-5.2H300.24z"/>
	<path d="M276.24,293.95v120.29c0,12.32-10.03,22.35-22.36,22.35h-68.29c-12.32,0-22.35-10.03-22.35-22.35V293.95
		c0-12.33,10.03-22.36,22.35-22.36h68.29C266.21,271.59,276.24,281.62,276.24,293.95z M261.24,414.24v-1.65h-83v1.65
		c0,4.05,3.3,7.35,7.35,7.35h68.29C257.94,421.59,261.24,418.29,261.24,414.24z M261.24,397.59V293.95c0-4.06-3.3-7.36-7.36-7.36
		h-68.29c-4.05,0-7.35,3.3-7.35,7.36v103.64H261.24z"/>
	<path style="fill:#F48C6C;" d="M261.24,412.59v1.65c0,4.05-3.3,7.35-7.36,7.35h-68.29c-4.05,0-7.35-3.3-7.35-7.35v-1.65H261.24z"/>
	<path d="M113,293.95v120.29c0,12.32-10.03,22.35-22.36,22.35H22.35C10.03,436.59,0,426.56,0,414.24V293.95
		c0-12.33,10.03-22.36,22.35-22.36h68.29C102.97,271.59,113,281.62,113,293.95z M98,414.24v-1.65H15v1.65c0,4.05,3.3,7.35,7.35,7.35
		h68.29C94.7,421.59,98,418.29,98,414.24z M98,397.59V293.95c0-4.06-3.3-7.36-7.36-7.36H22.35c-4.05,0-7.35,3.3-7.35,7.36v103.64H98
		z"/>
	<path style="fill:#F48C6C;" d="M98,412.59v1.65c0,4.05-3.3,7.35-7.36,7.35H22.35c-4.05,0-7.35-3.3-7.35-7.35v-1.65H98z"/>
</g>
<g>
</g>
<g>
</g>
<g>
</g>
<g>
</g>
<g>
</g>
<g>
</g>
<g>
</g>
<g>
</g>
<g>
</g>
<g>
</g>
<g>
</g>
<g>
</g>
<g>
</g>
<g>
</g>
<g>
</g>
</svg>
